<svg width="140" height="24" viewBox="0 0 140 24" fill="none" xmlns="http://www.w3.org/2000/svg">
<g id="@s-Logo">
<g id="SVG 24">
<g id="Group">
<path id="Vector" d="M4.3125 14.2559C4.35263 14.265 4.39435 14.2695 4.4375 14.2695V14.2705L7.95703 14.2783H7.95508C7.95615 14.2794 7.95652 14.2813 7.95703 14.2832C8.07545 17.4118 10.5731 19.9391 13.6855 20.1221H13.6895C13.7356 20.124 13.7801 20.1188 13.8232 20.1104C13.8156 20.1473 13.8116 20.1858 13.8115 20.2256L13.8037 23.7578C13.8026 23.7585 13.8003 23.7587 13.7959 23.7588C8.65543 23.6312 4.49 19.4899 4.32617 14.3584V14.3555C4.32462 14.3214 4.31964 14.2882 4.3125 14.2559ZM20.1172 10.1729C20.1542 10.1805 20.1926 10.1845 20.2324 10.1846V10.1855L23.7578 10.1924C23.7585 10.1932 23.7598 10.1959 23.7598 10.2012C23.632 15.3395 19.4888 19.5033 14.3555 19.667H14.3525C14.3236 19.6683 14.2953 19.6733 14.2676 19.6787L14.2832 19.5732V19.5635L14.29 16.0391C17.4197 15.9179 19.9503 13.428 20.1289 10.3105V10.3076C20.1309 10.2613 20.1258 10.2163 20.1172 10.1729ZM9.73242 4.42871L9.72461 7.95215L9.71777 7.95508C6.58939 8.0746 4.06201 10.57 3.87891 13.6807V13.6846C3.87675 13.7344 3.88252 13.7826 3.89258 13.8291C3.85233 13.82 3.8102 13.8145 3.7666 13.8145H3.76758L0.241211 13.8066L0.240234 13.7988C0.368071 8.65234 4.51169 4.48897 9.64453 4.33301H9.64746C9.68052 4.33151 9.71268 4.32513 9.74414 4.31836C9.73706 4.35399 9.73244 4.39079 9.73242 4.42871ZM10.2031 0.240234C15.3518 0.367303 19.51 4.50957 19.6738 9.6416V9.64453C19.6752 9.67453 19.6798 9.70373 19.6855 9.73242C19.6485 9.7247 19.6099 9.72174 19.5703 9.72168L16.0527 9.71289L16.0498 9.70703C15.9305 6.57923 13.4341 4.0531 10.3223 3.87012L10.3193 3.86914C10.2707 3.86703 10.2232 3.87232 10.1777 3.88184C10.1844 3.84721 10.1884 3.81142 10.1885 3.77441L10.1953 0.241211C10.1962 0.240578 10.1991 0.240471 10.2031 0.240234Z" stroke="#1B1B1B" stroke-width="0.48"/>
</g>
</g>
<path id="ReCycle&#194;&#174;" d="M41.42 19H43.62V13.4H47.3C50.8 13.4 49.44 18.4 50.08 19H52.44V18.86C51.66 18.62 52.88 12.98 49.56 12.36V12.32C51.14 11.96 52.24 10.64 52.24 8.82C52.24 6.18 50.54 4.7 47.38 4.7H41.42V19ZM43.62 11.5V6.6H46.94C49.14 6.6 50.02 7.44 50.02 8.98C50.02 10.62 48.92 11.5 46.9 11.5H43.62ZM54.545 19H64.865V17.1H56.745V12.56H63.685V10.66H56.745V6.6H64.665V4.7H54.545V19ZM72.5563 19.28C76.1563 19.28 78.3963 16.98 78.7163 13.8H76.4163C76.2763 15.54 75.2963 17.38 72.5363 17.38C69.3763 17.38 68.1763 14.7 68.1763 11.84C68.1763 9 69.3763 6.32 72.5363 6.32C75.2763 6.32 76.1563 8.16 76.4163 9.56H78.7163C78.3763 6.7 76.1563 4.42 72.5763 4.42C68.5163 4.42 65.8763 7.54 65.8763 11.86C65.8763 16.16 68.4963 19.28 72.5563 19.28ZM83.9319 19H86.1519V13.28L91.2719 4.7H88.9119L85.0719 11.54H85.0319L81.1919 4.7H78.8119L83.9319 13.28V19ZM97.732 19.28C101.332 19.28 103.572 16.98 103.892 13.8H101.592C101.452 15.54 100.472 17.38 97.712 17.38C94.552 17.38 93.352 14.7 93.352 11.84C93.352 9 94.552 6.32 97.712 6.32C100.452 6.32 101.332 8.16 101.592 9.56H103.892C103.552 6.7 101.332 4.42 97.752 4.42C93.692 4.42 91.052 7.54 91.052 11.86C91.052 16.16 93.672 19.28 97.732 19.28ZM105.873 19H115.313V17.1H108.073V4.7H105.873V19ZM117.025 19H127.345V17.1H119.225V12.56H126.165V10.66H119.225V6.6H127.145V4.7H117.025V19ZM133.688 14.06C136.348 14.06 138.448 12 138.448 9.22C138.448 6.44 136.348 4.38 133.688 4.38C131.028 4.38 128.928 6.44 128.928 9.22C128.928 12 131.028 14.06 133.688 14.06ZM129.868 9.22C129.868 6.88 131.488 5.2 133.688 5.2C135.888 5.2 137.508 6.88 137.508 9.22C137.508 11.56 135.888 13.24 133.688 13.24C131.488 13.24 129.868 11.56 129.868 9.22ZM131.688 11.86H133.008V9.98H133.508C134.748 9.98 134.308 11.62 134.568 11.86H135.928V11.8C135.608 11.7 136.048 9.68 134.688 9.46V9.44C135.368 9.28 135.808 8.84 135.808 8.1C135.808 7.1 135.148 6.54 133.908 6.54H131.688V11.86ZM133.008 8.92V7.54H133.548C134.088 7.54 134.548 7.64 134.548 8.22C134.548 8.8 134.088 8.92 133.548 8.92H133.008Z" fill="#1B1B1B"/>
</g>
</svg>
