<svg width="86" height="24" viewBox="0 0 86 24" fill="none" xmlns="http://www.w3.org/2000/svg">
<path id="@s-ReCycle" d="M0 0.941176H6.38824C7.69804 0.941176 8.82353 1.13725 9.76471 1.52941C10.7137 1.92157 11.4431 2.50196 11.9529 3.27059C12.4627 4.03922 12.7176 4.98431 12.7176 6.10588C12.7176 7.02353 12.5608 7.81176 12.2471 8.47059C11.9412 9.12157 11.5059 9.66667 10.9412 10.1059C10.3843 10.5373 9.72941 10.8824 8.97647 11.1412L7.85882 11.7294H2.30588L2.28235 8.97647H6.41176C7.03137 8.97647 7.5451 8.86667 7.95294 8.64706C8.36078 8.42745 8.66667 8.12157 8.87059 7.72941C9.08235 7.33725 9.18824 6.88235 9.18824 6.36471C9.18824 5.81569 9.08627 5.34118 8.88235 4.94118C8.67843 4.54118 8.36863 4.23529 7.95294 4.02353C7.53725 3.81176 7.01569 3.70588 6.38824 3.70588H3.52941V18.0706H0V0.941176ZM9.57647 18.0706L5.67059 10.4353L9.4 10.4118L13.3529 17.9059V18.0706H9.57647ZM21.0824 18.3059C20.0941 18.3059 19.2078 18.149 18.4235 17.8353C17.6392 17.5137 16.9725 17.0706 16.4235 16.5059C15.8824 15.9412 15.4667 15.2863 15.1765 14.5412C14.8863 13.7882 14.7412 12.9882 14.7412 12.1412V11.6706C14.7412 10.7059 14.8784 9.82353 15.1529 9.02353C15.4275 8.22353 15.8196 7.52941 16.3294 6.94118C16.8471 6.35294 17.4745 5.90196 18.2118 5.58824C18.949 5.26667 19.7804 5.10588 20.7059 5.10588C21.6078 5.10588 22.4078 5.2549 23.1059 5.55294C23.8039 5.85098 24.3882 6.27451 24.8588 6.82353C25.3373 7.37255 25.698 8.03137 25.9412 8.8C26.1843 9.56078 26.3059 10.4078 26.3059 11.3412V12.7529H16.1882V10.4941H22.9765V10.2353C22.9765 9.76471 22.8902 9.3451 22.7176 8.97647C22.5529 8.6 22.302 8.30196 21.9647 8.08235C21.6275 7.86275 21.1961 7.75294 20.6706 7.75294C20.2235 7.75294 19.8392 7.85098 19.5176 8.04706C19.1961 8.24314 18.9333 8.51765 18.7294 8.87059C18.5333 9.22353 18.3843 9.63922 18.2824 10.1176C18.1882 10.5882 18.1412 11.1059 18.1412 11.6706V12.1412C18.1412 12.651 18.2118 13.1216 18.3529 13.5529C18.502 13.9843 18.7098 14.3569 18.9765 14.6706C19.251 14.9843 19.5804 15.2275 19.9647 15.4C20.3569 15.5725 20.8 15.6588 21.2941 15.6588C21.9059 15.6588 22.4745 15.5412 23 15.3059C23.5333 15.0627 23.9922 14.698 24.3765 14.2118L26.0235 16C25.7569 16.3843 25.3922 16.7529 24.9294 17.1059C24.4745 17.4588 23.9255 17.749 23.2824 17.9765C22.6392 18.1961 21.9059 18.3059 21.0824 18.3059ZM38.3765 12.3882H41.8941C41.8235 13.5412 41.5059 14.5647 40.9412 15.4588C40.3843 16.3529 39.6039 17.051 38.6 17.5529C37.6039 18.0549 36.4039 18.3059 35 18.3059C33.902 18.3059 32.9176 18.1176 32.0471 17.7412C31.1765 17.3569 30.4314 16.8078 29.8118 16.0941C29.2 15.3804 28.7333 14.5176 28.4118 13.5059C28.0902 12.4941 27.9294 11.3608 27.9294 10.1059V8.91765C27.9294 7.66275 28.0941 6.52941 28.4235 5.51765C28.7608 4.49804 29.2392 3.63137 29.8588 2.91765C30.4863 2.20392 31.2353 1.6549 32.1059 1.27059C32.9765 0.886275 33.949 0.694118 35.0235 0.694118C36.451 0.694118 37.6549 0.952941 38.6353 1.47059C39.6235 1.98824 40.3882 2.70196 40.9294 3.61176C41.4784 4.52157 41.8078 5.55686 41.9176 6.71765H38.3882C38.349 6.02745 38.2118 5.44314 37.9765 4.96471C37.7412 4.47843 37.3843 4.11373 36.9059 3.87059C36.4353 3.61961 35.8078 3.49412 35.0235 3.49412C34.4353 3.49412 33.9216 3.60392 33.4824 3.82353C33.0431 4.04314 32.6745 4.37647 32.3765 4.82353C32.0784 5.27059 31.8549 5.83529 31.7059 6.51765C31.5647 7.19216 31.4941 7.98431 31.4941 8.89412V10.1059C31.4941 10.9922 31.5608 11.7725 31.6941 12.4471C31.8275 13.1137 32.0314 13.6784 32.3059 14.1412C32.5882 14.5961 32.949 14.9412 33.3882 15.1765C33.8353 15.4039 34.3725 15.5176 35 15.5176C35.7373 15.5176 36.3451 15.4 36.8235 15.1647C37.302 14.9294 37.6667 14.5804 37.9176 14.1176C38.1765 13.6549 38.3294 13.0784 38.3765 12.3882ZM47.7765 16.6353L51.1529 5.34118H54.7882L49.6706 19.9882C49.5608 20.3098 49.4118 20.6549 49.2235 21.0235C49.0431 21.3922 48.7961 21.7412 48.4824 22.0706C48.1765 22.4078 47.7882 22.6824 47.3176 22.8941C46.8549 23.1059 46.2863 23.2118 45.6118 23.2118C45.2902 23.2118 45.0275 23.1922 44.8235 23.1529C44.6196 23.1137 44.3765 23.0588 44.0941 22.9882V20.5059C44.1804 20.5059 44.2706 20.5059 44.3647 20.5059C44.4588 20.5137 44.549 20.5176 44.6353 20.5176C45.0824 20.5176 45.4471 20.4667 45.7294 20.3647C46.0118 20.2627 46.2392 20.1059 46.4118 19.8941C46.5843 19.6902 46.7216 19.4235 46.8235 19.0941L47.7765 16.6353ZM46.3647 5.34118L49.1294 14.5647L49.6118 18.1529L47.3059 18.4L42.7294 5.34118H46.3647ZM61.2353 15.6588C61.651 15.6588 62.0196 15.5804 62.3412 15.4235C62.6627 15.2588 62.9137 15.0314 63.0941 14.7412C63.2824 14.4431 63.3804 14.0941 63.3882 13.6941H66.5765C66.5686 14.5882 66.3294 15.3843 65.8588 16.0824C65.3882 16.7725 64.7569 17.3176 63.9647 17.7176C63.1725 18.1098 62.2863 18.3059 61.3059 18.3059C60.3176 18.3059 59.4549 18.1412 58.7176 17.8118C57.9882 17.4824 57.3804 17.0275 56.8941 16.4471C56.4078 15.8588 56.0431 15.1765 55.8 14.4C55.5569 13.6157 55.4353 12.7765 55.4353 11.8824V11.5412C55.4353 10.6392 55.5569 9.8 55.8 9.02353C56.0431 8.23922 56.4078 7.55686 56.8941 6.97647C57.3804 6.38824 57.9882 5.92941 58.7176 5.6C59.4471 5.27059 60.302 5.10588 61.2824 5.10588C62.3255 5.10588 63.2392 5.30588 64.0235 5.70588C64.8157 6.10588 65.4353 6.67843 65.8824 7.42353C66.3373 8.16078 66.5686 9.03529 66.5765 10.0471H63.3882C63.3804 9.62353 63.2902 9.23922 63.1176 8.89412C62.9529 8.54902 62.7098 8.27451 62.3882 8.07059C62.0745 7.85882 61.6863 7.75294 61.2235 7.75294C60.7294 7.75294 60.3255 7.85882 60.0118 8.07059C59.698 8.27451 59.4549 8.55686 59.2824 8.91765C59.1098 9.27059 58.9882 9.67451 58.9176 10.1294C58.8549 10.5765 58.8235 11.0471 58.8235 11.5412V11.8824C58.8235 12.3765 58.8549 12.851 58.9176 13.3059C58.9804 13.7608 59.098 14.1647 59.2706 14.5176C59.451 14.8706 59.698 15.149 60.0118 15.3529C60.3255 15.5569 60.7333 15.6588 61.2353 15.6588ZM72.1176 0V18.0706H68.7176V0H72.1176ZM80.7765 18.3059C79.7882 18.3059 78.902 18.149 78.1176 17.8353C77.3333 17.5137 76.6667 17.0706 76.1176 16.5059C75.5765 15.9412 75.1608 15.2863 74.8706 14.5412C74.5804 13.7882 74.4353 12.9882 74.4353 12.1412V11.6706C74.4353 10.7059 74.5725 9.82353 74.8471 9.02353C75.1216 8.22353 75.5137 7.52941 76.0235 6.94118C76.5412 6.35294 77.1686 5.90196 77.9059 5.58824C78.6431 5.26667 79.4745 5.10588 80.4 5.10588C81.302 5.10588 82.102 5.2549 82.8 5.55294C83.498 5.85098 84.0824 6.27451 84.5529 6.82353C85.0314 7.37255 85.3922 8.03137 85.6353 8.8C85.8784 9.56078 86 10.4078 86 11.3412V12.7529H75.8824V10.4941H82.6706V10.2353C82.6706 9.76471 82.5843 9.3451 82.4118 8.97647C82.2471 8.6 81.9961 8.30196 81.6588 8.08235C81.3216 7.86275 80.8902 7.75294 80.3647 7.75294C79.9176 7.75294 79.5333 7.85098 79.2118 8.04706C78.8902 8.24314 78.6275 8.51765 78.4235 8.87059C78.2275 9.22353 78.0784 9.63922 77.9765 10.1176C77.8824 10.5882 77.8353 11.1059 77.8353 11.6706V12.1412C77.8353 12.651 77.9059 13.1216 78.0471 13.5529C78.1961 13.9843 78.4039 14.3569 78.6706 14.6706C78.9451 14.9843 79.2745 15.2275 79.6588 15.4C80.051 15.5725 80.4941 15.6588 80.9882 15.6588C81.6 15.6588 82.1686 15.5412 82.6941 15.3059C83.2275 15.0627 83.6863 14.698 84.0706 14.2118L85.7176 16C85.451 16.3843 85.0863 16.7529 84.6235 17.1059C84.1686 17.4588 83.6196 17.749 82.9765 17.9765C82.3333 18.1961 81.6 18.3059 80.7765 18.3059Z" fill="white"/>
</svg>
